<svg xmlns="http://www.w3.org/2000/svg" width="1634" height="273" viewBox="0 0 1634 273"><path fill="#FFF" fill-rule="evenodd" d="M96.8928177,0 L134.850829,0 L134.850829,274 L96.8928177,274 Z M149.834254,0 L171.809945,0 L171.809945,274 L149.834254,274 Z M220.755801,0 L258.713812,0 L258.713812,274 L220.755801,274 Z M299.668508,0 L357.60442,0 L357.60442,274 L299.668508,274 Z M396.561326,0 L434.519337,0 L434.519337,274 L396.561326,274 Z M449.502762,0 L471.478453,0 L471.478453,274 L449.502762,274 Z M485.462983,0 L516.428729,0 L516.428729,274 L485.462983,274 Z M825.087293,0 L767.151381,0 L767.151381,274 L825.087293,274 Z M762.156906,0 L731.19116,0 L731.19116,274 L762.156906,274 Z M675.253039,0 L653.277348,0 L653.277348,274 L675.253039,274 Z M639.292818,0 L608.327072,0 L608.327072,274 L639.292818,274 Z M604.331492,0 L566.373481,0 L566.373481,274 L604.331492,274 Z M1157.71934,0 L1126.75359,0 L1126.75359,274 L1157.71934,274 Z M1124.7558,0 L1066.81989,0 L1066.81989,274 L1124.7558,274 Z M1027.86298,0 L989.904972,0 L989.904972,274 L1027.86298,274 Z M974.921547,0 L952.945856,0 L952.945856,274 L974.921547,274 Z M938.961326,0 L907.99558,0 L907.99558,274 L938.961326,274 Z M1212.65856,0 L1270.59448,0 L1270.59448,274 L1212.65856,274 Z M1275.58895,0 L1306.5547,0 L1306.5547,274 L1275.58895,274 Z M1362.49282,0 L1384.46851,0 L1384.46851,274 L1362.49282,274 Z M1433.41436,0 L1471.37238,0 L1471.37238,274 L1433.41436,274 Z M1575.25746,0 L1606.2232,0 L1606.2232,274 L1575.25746,274 Z M1609.21989,0 L1647.1779,0 L1647.1779,274 L1609.21989,274 Z M1698.12155,0 L1729.08729,0 L1729.08729,274 L1698.12155,274 Z" opacity=".95" transform="translate(-96.036 -1)"/></svg>