<svg xmlns="http://www.w3.org/2000/svg" width="37" height="161" viewBox="0 0 37 161"><path fill-rule="evenodd" d="M-62,62 L-58.2790698,62 L-58.2790698,98 L-62,98 Z M-56.8102815,62 L-54.6560588,62 L-54.6560588,98 L-56.8102815,98 Z M-49.8580171,62 L-46.1370869,62 L-46.1370869,98 L-49.8580171,98 Z M-42.122399,62 L-36.4430845,62 L-36.4430845,98 L-42.122399,98 Z M-32.624235,62 L-28.9033048,62 L-28.9033048,98 L-32.624235,98 Z M-27.4345165,62 L-25.2802938,62 L-25.2802938,98 L-27.4345165,98 Z M-23.9094247,62 L-20.873929,62 L-20.873929,98 L-23.9094247,98 Z M9.38310894,62 L3.70379437,62 L3.70379437,98 L9.38310894,98 Z M3.21419829,62 L0.17870257,62 L0.17870257,98 L3.21419829,98 Z M-5.30477356,62 L-7.45899633,62 L-7.45899633,98 L-5.30477356,98 Z M-8.82986536,62 L-11.8653611,62 L-11.8653611,98 L-8.82986536,98 Z M-12.2570379,62 L-15.9779682,62 L-15.9779682,98 L-12.2570379,98 Z M41.9902081,62 L38.9547124,62 L38.9547124,98 L41.9902081,98 Z M38.7588739,62 L33.0795594,62 L33.0795594,98 L38.7588739,98 Z M29.2607099,62 L25.5397797,62 L25.5397797,98 L29.2607099,98 Z M24.0709914,62 L21.9167687,62 L21.9167687,98 L24.0709914,98 Z M20.5458996,62 L17.5104039,62 L17.5104039,98 L20.5458996,98 Z M47.375765,62 L53.0550796,62 L53.0550796,98 L47.375765,98 Z M53.5446756,62 L56.5801714,62 L56.5801714,98 L53.5446756,98 Z M62.0636475,62 L64.2178703,62 L64.2178703,98 L62.0636475,98 Z M69.0159119,62 L72.7368421,62 L72.7368421,98 L69.0159119,98 Z M82.9204406,62 L85.9559364,62 L85.9559364,98 L82.9204406,98 Z M86.249694,62 L89.9706242,62 L89.9706242,98 L86.249694,98 Z M94.9645043,62 L98,62 L98,98 L94.9645043,98 Z" transform="rotate(90 18 80.86)"/></svg>